<svg width="512" height="512" viewBox="0 0 512 512" fill="none" xmlns="http://www.w3.org/2000/svg">
<path d="M256 48C141.128 48 48 141.128 48 256C48 354.216 116.096 436.48 207.64 458.288C202.904 457.16 198.208 455.896 193.6 454.456V406.8C193.6 406.8 185.8 409.4 175.4 409.4C146.304 409.4 134.216 383.44 131.2 370.4C129.368 362.456 124.584 354.928 119.448 350.328C113.312 344.856 110.44 344.84 110.4 342.968C110.32 339.04 115.664 339.2 118.2 339.2C131.2 339.2 141.056 353.032 145.632 360.184C156.968 377.84 169.136 380.8 175.4 380.8C183.2 380.8 189.936 379.632 194.576 377.392C196.72 362.288 203.44 348.832 214.4 339.2C165.624 329.448 131.2 301.472 131.2 256C131.2 232.576 140.6 211.048 156.264 193.664C154.664 189.128 152 179.952 152 165C152 155.12 152.688 142.992 157.2 131.2C157.2 131.2 186.864 131.408 214.84 157.904C227.752 154.144 241.568 152 256 152C270.432 152 284.248 154.144 297.16 157.904C325.136 131.408 354.8 131.2 354.8 131.2C359.336 142.992 360 155.12 360 165C360 181.12 357.856 190.52 356.544 194.576C371.728 211.8 380.8 232.992 380.8 256C380.8 301.472 346.376 329.448 297.6 339.2C310.624 350.64 318.4 367.304 318.4 386V454.456C313.792 455.904 309.104 457.16 304.36 458.288C395.904 436.48 464 354.216 464 256C464 141.128 370.872 48 256 48ZM270.504 463.44C265.712 463.776 260.88 464 256 464C260.88 464 265.704 463.768 270.504 463.44ZM256 464C251.12 464 246.288 463.776 241.496 463.44C246.296 463.768 251.12 464 256 464ZM238.304 463.2C228.568 462.376 219.016 460.888 209.712 458.768C219.024 460.88 228.568 462.376 238.304 463.2Z" fill="white"/>
</svg>
